<mxfile host="app.diagrams.net" agent="Mozilla/5.0 (Windows NT 10.0; Win64; x64) AppleWebKit/537.36 (KHTML, like Gecko) Chrome/137.0.0.0 Safari/537.36 Edg/137.0.0.0" version="27.1.1">
  <diagram name="Página-1" id="4E-mzFiqRBKeItRmrbwK">
    <mxGraphModel dx="2118" dy="711" grid="1" gridSize="10" guides="1" tooltips="1" connect="1" arrows="1" fold="1" page="1" pageScale="1" pageWidth="827" pageHeight="1169" math="0" shadow="0">
      <root>
        <mxCell id="0" />
        <mxCell id="1" parent="0" />
        <mxCell id="2o-7If4g3893sLOwZ9OU-11" value="" style="html=1;whiteSpace=wrap;shadow=0;fillColor=#d5e8d4;strokeWidth=2;strokeColor=#82b366;" vertex="1" parent="1">
          <mxGeometry x="183" y="130" width="580" height="570" as="geometry" />
        </mxCell>
        <mxCell id="2o-7If4g3893sLOwZ9OU-25" style="edgeStyle=orthogonalEdgeStyle;rounded=0;orthogonalLoop=1;jettySize=auto;html=1;entryX=0;entryY=0.5;entryDx=0;entryDy=0;" edge="1" parent="1" target="2o-7If4g3893sLOwZ9OU-2">
          <mxGeometry relative="1" as="geometry">
            <mxPoint x="113" y="310" as="sourcePoint" />
            <Array as="points">
              <mxPoint x="163" y="310" />
              <mxPoint x="163" y="180" />
            </Array>
          </mxGeometry>
        </mxCell>
        <mxCell id="2o-7If4g3893sLOwZ9OU-1" value="Cliente" style="shape=umlActor;verticalLabelPosition=bottom;verticalAlign=top;html=1;" vertex="1" parent="1">
          <mxGeometry x="63" y="280" width="40" height="90" as="geometry" />
        </mxCell>
        <mxCell id="2o-7If4g3893sLOwZ9OU-2" value="&lt;font style=&quot;font-size: 9px;&quot;&gt;RF01 - Visualizar o estoque de produtos do mercado, separado por categorias&lt;/font&gt;" style="ellipse;whiteSpace=wrap;html=1;fillColor=#f5f5f5;fontColor=#333333;strokeColor=#666666;" vertex="1" parent="1">
          <mxGeometry x="243" y="130" width="140" height="100" as="geometry" />
        </mxCell>
        <mxCell id="2o-7If4g3893sLOwZ9OU-3" value="&lt;font style=&quot;font-size: 11px;&quot;&gt;RF02 - Iniciar a compra e gerar ID da compra&lt;/font&gt;" style="ellipse;whiteSpace=wrap;html=1;fillColor=#f5f5f5;fontColor=#333333;strokeColor=#666666;" vertex="1" parent="1">
          <mxGeometry x="418" y="190" width="150" height="100" as="geometry" />
        </mxCell>
        <mxCell id="2o-7If4g3893sLOwZ9OU-4" value="&lt;font style=&quot;font-size: 9px;&quot;&gt;RF04 - Efetivar a compra com variadas opções de pagamento (PIX, Cartão de crédito, débito ou dinheiro no ato da entrega)&lt;/font&gt;" style="ellipse;whiteSpace=wrap;html=1;fillColor=#f5f5f5;fontColor=#333333;strokeColor=#666666;" vertex="1" parent="1">
          <mxGeometry x="483" y="300" width="180" height="130" as="geometry" />
        </mxCell>
        <mxCell id="2o-7If4g3893sLOwZ9OU-5" value="&lt;font style=&quot;font-size: 9px;&quot;&gt;RF03 - Acessar carrinho atrelado ao ID para guardar os produtos escolhidos pelo usuário&lt;/font&gt;" style="ellipse;whiteSpace=wrap;html=1;fillColor=#f5f5f5;fontColor=#333333;strokeColor=#666666;" vertex="1" parent="1">
          <mxGeometry x="291" y="250" width="130" height="90" as="geometry" />
        </mxCell>
        <mxCell id="2o-7If4g3893sLOwZ9OU-6" value="RF05 - Preencher forma de entrega (Em domicílio ou resgate direto no mercado)" style="ellipse;whiteSpace=wrap;html=1;fillColor=#f5f5f5;fontColor=#333333;strokeColor=#666666;" vertex="1" parent="1">
          <mxGeometry x="266" y="365" width="180" height="100" as="geometry" />
        </mxCell>
        <mxCell id="2o-7If4g3893sLOwZ9OU-7" value="&lt;font style=&quot;font-size: 10px;&quot;&gt;RF06 - Preencher endereço do cliente caso seja entrega em domicílio&lt;/font&gt;" style="ellipse;whiteSpace=wrap;html=1;fillColor=#f5f5f5;fontColor=#333333;strokeColor=#666666;" vertex="1" parent="1">
          <mxGeometry x="403" y="480" width="160" height="110" as="geometry" />
        </mxCell>
        <mxCell id="2o-7If4g3893sLOwZ9OU-8" value="RF07- Receber ID de compra para resgate direto no mercado" style="ellipse;whiteSpace=wrap;html=1;fillColor=#f5f5f5;fontColor=#333333;strokeColor=#666666;" vertex="1" parent="1">
          <mxGeometry x="583" y="440" width="140" height="80" as="geometry" />
        </mxCell>
        <mxCell id="2o-7If4g3893sLOwZ9OU-9" value="&lt;font style=&quot;font-size: 10px;&quot;&gt;RF09 - Preencher telefone de contato do cliente para caso aconteça algum imprevisto&lt;/font&gt;" style="ellipse;whiteSpace=wrap;html=1;fillColor=#f5f5f5;fontColor=#333333;strokeColor=#666666;" vertex="1" parent="1">
          <mxGeometry x="223" y="540" width="160" height="80" as="geometry" />
        </mxCell>
        <mxCell id="2o-7If4g3893sLOwZ9OU-10" value="&lt;font style=&quot;font-size: 11px;&quot;&gt;RF08 - Pagar taxa de entrega: 5% do valor total para compras menores ou iguais a 100 reais&lt;/font&gt;" style="ellipse;whiteSpace=wrap;html=1;fillColor=#f5f5f5;fontColor=#333333;strokeColor=#666666;" vertex="1" parent="1">
          <mxGeometry x="553" y="600" width="140" height="90" as="geometry" />
        </mxCell>
        <mxCell id="2o-7If4g3893sLOwZ9OU-26" value="" style="edgeStyle=segmentEdgeStyle;endArrow=classic;html=1;curved=0;rounded=0;endSize=8;startSize=8;sourcePerimeterSpacing=0;targetPerimeterSpacing=0;entryX=0.003;entryY=0.556;entryDx=0;entryDy=0;entryPerimeter=0;" edge="1" parent="1" target="2o-7If4g3893sLOwZ9OU-5">
          <mxGeometry width="100" relative="1" as="geometry">
            <mxPoint x="113" y="310" as="sourcePoint" />
            <mxPoint x="213" y="350" as="targetPoint" />
            <Array as="points">
              <mxPoint x="163" y="310" />
              <mxPoint x="163" y="300" />
              <mxPoint x="290" y="300" />
            </Array>
          </mxGeometry>
        </mxCell>
        <mxCell id="2o-7If4g3893sLOwZ9OU-29" value="" style="edgeStyle=segmentEdgeStyle;endArrow=classic;html=1;curved=0;rounded=0;endSize=8;startSize=8;sourcePerimeterSpacing=0;targetPerimeterSpacing=0;entryX=0;entryY=0.5;entryDx=0;entryDy=0;" edge="1" parent="1" target="2o-7If4g3893sLOwZ9OU-6">
          <mxGeometry width="100" relative="1" as="geometry">
            <mxPoint x="113" y="380" as="sourcePoint" />
            <mxPoint x="223" y="350" as="targetPoint" />
            <Array as="points">
              <mxPoint x="113" y="415" />
            </Array>
          </mxGeometry>
        </mxCell>
        <mxCell id="2o-7If4g3893sLOwZ9OU-32" value="" style="edgeStyle=segmentEdgeStyle;endArrow=classic;html=1;curved=0;rounded=0;endSize=8;startSize=8;sourcePerimeterSpacing=0;targetPerimeterSpacing=0;" edge="1" parent="1" target="2o-7If4g3893sLOwZ9OU-3">
          <mxGeometry width="100" relative="1" as="geometry">
            <mxPoint x="163" y="250" as="sourcePoint" />
            <mxPoint x="223" y="290" as="targetPoint" />
            <Array as="points">
              <mxPoint x="163" y="240" />
            </Array>
          </mxGeometry>
        </mxCell>
        <mxCell id="2o-7If4g3893sLOwZ9OU-33" value="" style="edgeStyle=segmentEdgeStyle;endArrow=classic;html=1;curved=0;rounded=0;endSize=8;startSize=8;sourcePerimeterSpacing=0;targetPerimeterSpacing=0;entryX=0.016;entryY=0.382;entryDx=0;entryDy=0;entryPerimeter=0;" edge="1" parent="1" target="2o-7If4g3893sLOwZ9OU-4">
          <mxGeometry width="100" relative="1" as="geometry">
            <mxPoint x="113" y="350" as="sourcePoint" />
            <mxPoint x="473" y="350" as="targetPoint" />
            <Array as="points" />
          </mxGeometry>
        </mxCell>
        <mxCell id="2o-7If4g3893sLOwZ9OU-34" value="&amp;lt;&amp;lt;extend&amp;gt;&amp;gt;" style="html=1;verticalAlign=bottom;labelBackgroundColor=none;endArrow=open;endFill=0;dashed=1;rounded=0;entryX=0.044;entryY=0.294;entryDx=0;entryDy=0;exitX=0.612;exitY=0.995;exitDx=0;exitDy=0;exitPerimeter=0;entryPerimeter=0;" edge="1" parent="1" source="2o-7If4g3893sLOwZ9OU-6" target="2o-7If4g3893sLOwZ9OU-7">
          <mxGeometry x="-0.0395" y="-31" width="160" relative="1" as="geometry">
            <mxPoint x="233" y="550" as="sourcePoint" />
            <mxPoint x="393" y="550" as="targetPoint" />
            <mxPoint as="offset" />
          </mxGeometry>
        </mxCell>
        <mxCell id="2o-7If4g3893sLOwZ9OU-35" value="&amp;lt;&amp;lt;extend&amp;gt;&amp;gt;" style="html=1;verticalAlign=bottom;labelBackgroundColor=none;endArrow=open;endFill=0;dashed=1;rounded=0;entryX=0;entryY=0.5;entryDx=0;entryDy=0;exitX=0.991;exitY=0.586;exitDx=0;exitDy=0;exitPerimeter=0;" edge="1" parent="1" source="2o-7If4g3893sLOwZ9OU-6" target="2o-7If4g3893sLOwZ9OU-8">
          <mxGeometry x="0.23" y="9" width="160" relative="1" as="geometry">
            <mxPoint x="233" y="550" as="sourcePoint" />
            <mxPoint x="393" y="550" as="targetPoint" />
            <mxPoint as="offset" />
          </mxGeometry>
        </mxCell>
        <mxCell id="2o-7If4g3893sLOwZ9OU-36" value="&amp;lt;&amp;lt;extend&amp;gt;&amp;gt;" style="html=1;verticalAlign=bottom;labelBackgroundColor=none;endArrow=open;endFill=0;dashed=1;rounded=0;entryX=0.124;entryY=0.164;entryDx=0;entryDy=0;entryPerimeter=0;exitX=0.733;exitY=1;exitDx=0;exitDy=0;exitPerimeter=0;" edge="1" parent="1" source="2o-7If4g3893sLOwZ9OU-7" target="2o-7If4g3893sLOwZ9OU-10">
          <mxGeometry x="1" y="19" width="160" relative="1" as="geometry">
            <mxPoint x="233" y="640" as="sourcePoint" />
            <mxPoint x="393" y="640" as="targetPoint" />
            <mxPoint x="2" y="1" as="offset" />
          </mxGeometry>
        </mxCell>
        <mxCell id="2o-7If4g3893sLOwZ9OU-37" value="" style="edgeStyle=segmentEdgeStyle;endArrow=classic;html=1;curved=0;rounded=0;endSize=8;startSize=8;sourcePerimeterSpacing=0;targetPerimeterSpacing=0;entryX=0;entryY=0.5;entryDx=0;entryDy=0;" edge="1" parent="1" target="2o-7If4g3893sLOwZ9OU-9">
          <mxGeometry width="100" relative="1" as="geometry">
            <mxPoint x="83" y="410" as="sourcePoint" />
            <mxPoint x="233" y="580" as="targetPoint" />
            <Array as="points">
              <mxPoint x="83" y="450" />
              <mxPoint x="133" y="450" />
              <mxPoint x="133" y="580" />
            </Array>
          </mxGeometry>
        </mxCell>
        <mxCell id="2o-7If4g3893sLOwZ9OU-38" value="&lt;div&gt;&lt;br&gt;&lt;/div&gt;&lt;div&gt;&lt;br&gt;&lt;/div&gt;" style="html=1;whiteSpace=wrap;fillColor=none;strokeColor=#FFFFFF;" vertex="1" parent="1">
          <mxGeometry x="-2" y="80" width="802" height="680" as="geometry" />
        </mxCell>
      </root>
    </mxGraphModel>
  </diagram>
</mxfile>
